<?xml version="1.0" standalone="no"?>
<!DOCTYPE svg PUBLIC "-//W3C//DTD SVG 20010904//EN"
 "http://www.w3.org/TR/2001/REC-SVG-20010904/DTD/svg10.dtd">
<svg version="1.0" xmlns="http://www.w3.org/2000/svg"
 width="310.000000pt" height="310.000000pt" viewBox="0 0 310.000000 310.000000"
 preserveAspectRatio="xMidYMid meet">
<metadata>
Created by potrace 1.11, written by Peter Selinger 2001-2013
</metadata>
<g transform="translate(0.000000,310.000000) scale(0.100000,-0.100000)"
fill="#000000" stroke="none">
<path d="M1370 3044 c-654 -90 -1159 -603 -1255 -1274 -80 -566 181 -1156 650
-1468 80 -52 245 -135 326 -162 76 -25 320 -68 435 -77 203 -15 514 60 719
173 495 274 795 808 772 1379 -11 270 -85 518 -224 748 -99 166 -285 358 -448
462 -162 103 -405 194 -575 215 -121 15 -308 17 -400 4z m280 -14 c41 -4 99
-11 127 -14 29 -3 60 -10 70 -15 10 -5 61 -21 113 -36 153 -44 358 -151 480
-253 85 -70 210 -195 210 -209 0 -7 4 -13 9 -13 17 0 140 -196 195 -310 96
-201 136 -382 136 -620 0 -234 -40 -418 -134 -615 -67 -141 -110 -208 -218
-338 -142 -172 -333 -315 -541 -405 -164 -71 -425 -115 -622 -106 -348 18
-703 191 -965 471 -110 118 -158 189 -231 344 -109 232 -151 413 -151 649 0
244 44 425 163 667 63 129 94 180 153 250 282 336 604 514 996 552 112 11 122
11 210 1z"/>
<path d="M585 2150 c-17 -19 -17 -40 -6 -437 6 -230 14 -495 18 -589 l6 -171
66 -7 c36 -3 190 -6 342 -6 347 0 332 -10 312 193 l-6 67 -213 0 -214 0 0 38
c0 22 -3 73 -6 115 l-7 77 175 0 c215 0 208 -4 208 126 0 146 18 134 -192 133
-133 -1 -182 2 -188 11 -4 7 -8 57 -9 111 l-2 99 184 0 c230 0 219 -8 215 146
l-3 109 -331 3 c-319 2 -331 2 -349 -18z"/>
<path d="M1467 2152 c-14 -16 -17 -43 -16 -173 0 -197 25 -1018 30 -1023 2 -2
57 -7 122 -11 102 -6 121 -5 144 10 l26 17 -6 229 -5 229 217 0 218 0 6 -142
c4 -79 7 -187 7 -240 l0 -98 133 0 c119 0 136 2 151 19 16 18 16 52 1 597 -9
319 -18 585 -21 592 -3 11 -31 13 -128 10 -181 -5 -170 12 -161 -261 l7 -217
-219 2 -218 3 -8 225 c-4 124 -9 231 -12 238 -3 9 -38 12 -128 12 -107 0 -126
-2 -140 -18z"/>
</g>
</svg>
